<?xml version="1.0" standalone="no"?>
<!DOCTYPE svg PUBLIC "-//W3C//DTD SVG 1.1//EN"
"http://www.w3.org/Graphics/SVG/1.1/DTD/svg11.dtd">

<svg width="626" height="229" view_box="0 0 626 229"
xmlns="http://www.w3.org/2000/svg"
xmlns:link="http://www.w3.org/1999/xlink">\n\n<desc>Généré par Mocodo 2.3.7 le Mon, 24 Jan 2022 10:31:05</desc>

<rect id="frame" x="0" y="0" width="626" height="229" fill="#f7f7f7" stroke="none" stroke-width="0"/>

<!-- Association IS -->
<line x1="80" y1="152" x2="165" y2="152" stroke="#9970ab" stroke-width="2"/>
<text x="124" y="169.0" fill="#1b7837" font-family="Verdana" font-size="12">1,1</text>
<line x1="298" y1="152" x2="165" y2="152" stroke="#9970ab" stroke-width="2"/>
<text x="235" y="169.0" fill="#1b7837" font-family="Verdana" font-size="12">0,1</text>
<g id="association-IS">
	<path d="M 165 127 a 14 14 90 0 1 14 14 V 152 h -28 V 141 a 14 14 90 0 1 14 -14" fill="#c2a5cf" stroke="#c2a5cf" stroke-width="0"/>
	<path d="M 179 152.0 v 11 a 14 14 90 0 1 -14 14 H 165 a 14 14 90 0 1 -14 -14 V 152.0 H 28" fill="#e7d4e8" stroke="#e7d4e8" stroke-width="0"/>
	<rect x="151" y="127" width="28" height="50" fill="none" rx="14" stroke="#9970ab" stroke-width="2"/>
	<line x1="151" y1="152" x2="179" y2="152" stroke="#9970ab" stroke-width="1"/>
	<text x="158" y="144.7" fill="#000000" font-family="Verdana" font-size="12">IS</text>
</g>

<!-- Association BOOKS OR LEAD -->
<line x1="298" y1="152" x2="426" y2="152" stroke="#9970ab" stroke-width="2"/>
<text x="340" y="169.0" fill="#1b7837" font-family="Verdana" font-size="12">0,N</text>
<line x1="567" y1="152" x2="426" y2="152" stroke="#9970ab" stroke-width="2"/>
<text x="490" y="169.0" fill="#1b7837" font-family="Verdana" font-size="12">0,N</text>
<g id="association-BOOKS OR LEAD">
	<path d="M 471 127 a 14 14 90 0 1 14 14 V 152 h -118 V 141 a 14 14 90 0 1 14 -14" fill="#c2a5cf" stroke="#c2a5cf" stroke-width="0"/>
	<path d="M 485 152.0 v 11 a 14 14 90 0 1 -14 14 H 381 a 14 14 90 0 1 -14 -14 V 152.0 H 118" fill="#e7d4e8" stroke="#e7d4e8" stroke-width="0"/>
	<rect x="367" y="127" width="118" height="50" fill="none" rx="14" stroke="#9970ab" stroke-width="2"/>
	<line x1="367" y1="152" x2="485" y2="152" stroke="#9970ab" stroke-width="1"/>
	<text x="374" y="144.7" fill="#000000" font-family="Verdana" font-size="12">BOOKS OR LEAD</text>
</g>

<!-- Association BELONGS TO -->
<line x1="426" y1="34" x2="298" y2="34" stroke="#9970ab" stroke-width="2"/>
<text x="358" y="51.0" fill="#1b7837" font-family="Verdana" font-size="12">1,1</text>
<line x1="165" y1="34" x2="298" y2="34" stroke="#9970ab" stroke-width="2"/>
<text x="223" y="51.0" fill="#1b7837" font-family="Verdana" font-size="12">0,N</text>
<g id="association-BELONGS TO">
	<path d="M 332 9 a 14 14 90 0 1 14 14 V 34 h -96 V 23 a 14 14 90 0 1 14 -14" fill="#c2a5cf" stroke="#c2a5cf" stroke-width="0"/>
	<path d="M 346 34.0 v 11 a 14 14 90 0 1 -14 14 H 264 a 14 14 90 0 1 -14 -14 V 34.0 H 96" fill="#e7d4e8" stroke="#e7d4e8" stroke-width="0"/>
	<rect x="250" y="9" width="96" height="50" fill="none" rx="14" stroke="#9970ab" stroke-width="2"/>
	<line x1="250" y1="34" x2="346" y2="34" stroke="#9970ab" stroke-width="1"/>
	<text x="257" y="26.7" fill="#000000" font-family="Verdana" font-size="12">BELONGS TO</text>
</g>

<!-- Association INCLUDES -->
<line x1="426" y1="34" x2="567" y2="34" stroke="#9970ab" stroke-width="2"/>
<text x="473" y="51.0" fill="#1b7837" font-family="Verdana" font-size="12">0,1</text>
<line x1="567" y1="152" x2="567" y2="34" stroke="#9970ab" stroke-width="2"/>
<text x="572.0" y="85" fill="#1b7837" font-family="Verdana" font-size="12">1,1</text>
<g id="association-INCLUDES">
	<path d="M 592 9 a 14 14 90 0 1 14 14 V 34 h -78 V 23 a 14 14 90 0 1 14 -14" fill="#c2a5cf" stroke="#c2a5cf" stroke-width="0"/>
	<path d="M 606 34.0 v 11 a 14 14 90 0 1 -14 14 H 542 a 14 14 90 0 1 -14 -14 V 34.0 H 78" fill="#e7d4e8" stroke="#e7d4e8" stroke-width="0"/>
	<rect x="528" y="9" width="78" height="50" fill="none" rx="14" stroke="#9970ab" stroke-width="2"/>
	<line x1="528" y1="34" x2="606" y2="34" stroke="#9970ab" stroke-width="1"/>
	<text x="535" y="26.7" fill="#000000" font-family="Verdana" font-size="12">INCLUDES</text>
</g>

<!-- Entity CATEGORY -->
<g id="entity-CATEGORY">
	<g id="frame-CATEGORY">
		<rect x="112" y="9" width="106" height="25" fill="#a6dba0" stroke="#a6dba0" stroke-width="0"/>
		<rect x="112" y="34.0" width="106" height="25" fill="#d9f0d3" stroke="#d9f0d3" stroke-width="0"/>
		<rect x="112" y="9" width="106" height="50" fill="none" stroke="#5aae61" stroke-width="2"/>
		<line x1="112" y1="34" x2="218" y2="34" stroke="#5aae61" stroke-width="1"/>
	</g>
	<text x="131" y="26.7" fill="#000000" font-family="Verdana" font-size="12">CATEGORY</text>
	<text x="117" y="51.8" fill="#000000" font-family="Verdana" font-size="12">category_name</text>
	<line x1="117" y1="54" x2="212" y2="54" stroke="#000000" stroke-width="1"/>
</g>

<!-- Entity SESSION -->
<g id="entity-SESSION">
	<g id="frame-SESSION">
		<rect x="517" y="93" width="100" height="25" fill="#a6dba0" stroke="#a6dba0" stroke-width="0"/>
		<rect x="517" y="118.0" width="100" height="93" fill="#d9f0d3" stroke="#d9f0d3" stroke-width="0"/>
		<rect x="517" y="93" width="100" height="118" fill="none" stroke="#5aae61" stroke-width="2"/>
		<line x1="517" y1="118" x2="617" y2="118" stroke="#5aae61" stroke-width="1"/>
	</g>
	<text x="538" y="110.7" fill="#000000" font-family="Verdana" font-size="12">SESSION</text>
	<text x="522" y="135.7" fill="#000000" font-family="Verdana" font-size="12">date</text>
	<line x1="522" y1="138" x2="550" y2="138" stroke="#000000" stroke-width="1"/>
	<text x="522" y="152.8" fill="#000000" font-family="Verdana" font-size="12">duration</text>
	<text x="522" y="169.8" fill="#000000" font-family="Verdana" font-size="12">city</text>
	<text x="522" y="186.8" fill="#000000" font-family="Verdana" font-size="12">address</text>
	<text x="522" y="203.8" fill="#000000" font-family="Verdana" font-size="12">max_adherent</text>
</g>

<!-- Entity SPORT -->
<g id="entity-SPORT">
	<g id="frame-SPORT">
		<rect x="384" y="9" width="84" height="25" fill="#a6dba0" stroke="#a6dba0" stroke-width="0"/>
		<rect x="384" y="34.0" width="84" height="25" fill="#d9f0d3" stroke="#d9f0d3" stroke-width="0"/>
		<rect x="384" y="9" width="84" height="50" fill="none" stroke="#5aae61" stroke-width="2"/>
		<line x1="384" y1="34" x2="468" y2="34" stroke="#5aae61" stroke-width="1"/>
	</g>
	<text x="405" y="26.7" fill="#000000" font-family="Verdana" font-size="12">SPORT</text>
	<text x="389" y="51.8" fill="#000000" font-family="Verdana" font-size="12">sport_name</text>
	<line x1="389" y1="54" x2="462" y2="54" stroke="#000000" stroke-width="1"/>
</g>

<!-- Entity USER -->
<g id="entity-USER">
	<g id="frame-USER">
		<rect x="261" y="84" width="74" height="25" fill="#a6dba0" stroke="#a6dba0" stroke-width="0"/>
		<rect x="261" y="109.0" width="74" height="111" fill="#d9f0d3" stroke="#d9f0d3" stroke-width="0"/>
		<rect x="261" y="84" width="74" height="136" fill="none" stroke="#5aae61" stroke-width="2"/>
		<line x1="261" y1="109" x2="335" y2="109" stroke="#5aae61" stroke-width="1"/>
	</g>
	<text x="281" y="101.7" fill="#000000" font-family="Verdana" font-size="12">USER</text>
	<text x="266" y="126.7" fill="#000000" font-family="Verdana" font-size="12">username</text>
	<line x1="266" y1="129" x2="327" y2="129" stroke="#000000" stroke-width="1"/>
	<text x="266" y="143.7" fill="#000000" font-family="Verdana" font-size="12">password</text>
	<text x="266" y="160.8" fill="#000000" font-family="Verdana" font-size="12">email</text>
	<text x="266" y="177.8" fill="#000000" font-family="Verdana" font-size="12">birth_date</text>
	<text x="266" y="194.8" fill="#000000" font-family="Verdana" font-size="12">gender</text>
	<text x="266" y="211.8" fill="#000000" font-family="Verdana" font-size="12">role</text>
</g>

<!-- Entity COACH -->
<g id="entity-COACH">
	<g id="frame-COACH">
		<rect x="41" y="110" width="78" height="25" fill="#a6dba0" stroke="#a6dba0" stroke-width="0"/>
		<rect x="41" y="135.0" width="78" height="59" fill="#d9f0d3" stroke="#d9f0d3" stroke-width="0"/>
		<rect x="41" y="110" width="78" height="84" fill="none" stroke="#5aae61" stroke-width="2"/>
		<line x1="41" y1="135" x2="119" y2="135" stroke="#5aae61" stroke-width="1"/>
	</g>
	<text x="58" y="127.7" fill="#000000" font-family="Verdana" font-size="12">COACH</text>
	<text x="46" y="152.8" fill="#000000" font-family="Verdana" font-size="12">photo</text>
	<line x1="46" y1="155" x2="81" y2="155" stroke="#000000" stroke-width="1"/>
	<text x="46" y="169.8" fill="#000000" font-family="Verdana" font-size="12">description</text>
	<text x="46" y="186.8" fill="#000000" font-family="Verdana" font-size="12">city</text>
</g>
</svg>